<svg width="200" height="80" viewBox="0 0 200 80" fill="none" xmlns="http://www.w3.org/2000/svg">
<path d="M15.6934 52.4863L15.7461 54.2441C15.7461 54.5488 15.6641 54.7832 15.5 54.9473C15.3359 55.1113 15.1367 55.1934 14.9023 55.1934C14.6797 55.1934 14.4922 55.1172 14.3398 54.9648C14.1875 54.8125 14.1113 54.6484 14.1113 54.4727C14.1113 54.2852 14.123 54.1152 14.1465 53.9629C14.1816 53.7988 14.2109 53.6172 14.2344 53.418C14.293 53.0781 14.3223 52.2285 14.3223 50.8691V29.002L33.4297 44.1543V33.6777C33.4297 32.8809 33.4062 32.3125 33.3594 31.9727C33.3008 31.4219 33.2715 31.0352 33.2715 30.8125C33.2715 30.2266 33.5234 29.9336 34.0273 29.9336C34.2266 29.9336 34.4141 30.0039 34.5898 30.1445C34.7773 30.2852 34.8711 30.4902 34.8711 30.7598V31.375L34.8008 33.9238V55.9668L15.6934 40.9727V52.4863ZM57.3535 50.7285C57.8105 50.7285 58.0391 50.9395 58.0391 51.3613C58.0391 51.6777 57.834 52.0527 57.4238 52.4863C55.5723 54.3848 53.0352 55.334 49.8125 55.334C46.918 55.334 44.4805 54.4609 42.5 52.7148C40.4492 50.8984 39.4238 48.6016 39.4238 45.8242C39.4238 42.9883 40.3496 40.6562 42.2012 38.8281C44.1582 36.8828 46.7598 35.9102 50.0059 35.9102C52.6074 35.9102 54.793 36.7012 56.5625 38.2832C58.4727 39.9824 59.4277 42.2148 59.4277 44.9805C59.4277 45.3789 59.416 45.8008 59.3926 46.2461H47.791V53.7871C48.5879 53.9512 49.4844 54.0332 50.4805 54.0332C52.5898 54.0332 54.3887 53.3359 55.877 51.9414C56.1816 51.6367 56.3984 51.3965 56.5273 51.2207C56.7969 50.8926 57.0723 50.7285 57.3535 50.7285ZM52.6602 37.5273C51.8984 37.3047 51.0371 37.1934 50.0762 37.1934C49.1152 37.1934 48.3535 37.2578 47.791 37.3867V44.9629H52.6602V37.5273ZM61.959 55.334C61.7949 55.334 61.6426 55.2637 61.502 55.123C61.3613 54.9941 61.291 54.8359 61.291 54.6484C61.291 54.2734 61.502 53.9277 61.9238 53.6113C62.3457 53.2949 62.6504 53.0078 62.8379 52.75C62.8379 52.75 64.3906 50.8457 67.4961 47.0371L61.0273 36.2266H69.0254L72.752 42.4316C74.9199 39.6426 76.0859 38.1191 76.25 37.8613C76.5664 37.3691 76.7773 36.9883 76.8828 36.7188C77.1055 36.1797 77.416 35.9102 77.8145 35.9102C78.002 35.9102 78.166 35.9746 78.3066 36.1035C78.459 36.2207 78.5352 36.3672 78.5352 36.543C78.5352 36.7188 78.5 36.8945 78.4297 37.0703C78.3711 37.2461 78.2656 37.4688 78.1133 37.7383C77.8086 38.2539 77.2754 38.998 76.5137 39.9707L73.543 43.75L80.3105 55H72.2773L68.2695 48.3203L63.9805 53.7168C63.2422 54.6426 62.7148 55.1641 62.3984 55.2812C62.2812 55.3164 62.1348 55.334 61.959 55.334ZM90.2422 55.334C85.6484 55.334 83.3516 53.2363 83.3516 49.041L83.334 37.5098L81.3125 37.5977C80.6797 37.5977 80.3633 37.3574 80.3633 36.877C80.3633 36.3965 80.7031 36.1562 81.3828 36.1562L83.0703 36.2266H83.334V33.502L90.875 30.127V36.2266H93.2305L94.9004 36.1562C95.5918 36.1562 95.9375 36.4023 95.9375 36.8945C95.9375 37.1172 95.8379 37.293 95.6387 37.4219C95.4512 37.5391 95.2344 37.5977 94.9883 37.5977L92.8086 37.5098H90.875V54.0332C92.2461 54.0098 93.3887 53.6172 94.3027 52.8555C94.7363 52.5273 95.041 52.1055 95.2168 51.5898C95.4043 51.0742 95.5684 50.7461 95.709 50.6055C95.8613 50.4531 96.0371 50.377 96.2363 50.377C96.4355 50.377 96.6055 50.459 96.7461 50.623C96.8867 50.7754 96.957 50.9629 96.957 51.1855C96.957 51.3965 96.8984 51.6367 96.7812 51.9062C96.6641 52.1641 96.4883 52.4395 96.2539 52.7324C95.7266 53.3887 95.1172 53.9102 94.4258 54.2969C93.1719 54.9883 91.7773 55.334 90.2422 55.334ZM100.033 30.127H107.346C110.756 30.127 113.258 30.3672 114.852 30.8477C116.668 31.4102 118.068 32.1309 119.053 33.0098C120.049 33.8887 120.828 34.7969 121.391 35.7344C122.539 37.6445 123.113 39.8125 123.113 42.2383C123.113 46.0586 121.742 49.1523 119 51.5195C117.055 53.2188 114.764 54.2676 112.127 54.666C110.662 54.8887 108.611 55 105.975 55H100.033V30.127ZM108.998 53.541C109.186 53.5527 109.355 53.5586 109.508 53.5586H109.912C113.088 53.5586 115.801 52.5684 118.051 50.5879C120.43 48.502 121.619 45.7305 121.619 42.2734C121.619 40.0938 121.098 38.1309 120.055 36.3848C118.543 33.8418 116.152 32.3008 112.883 31.7617C111.816 31.5859 110.521 31.4863 108.998 31.4629V53.541ZM144.014 50.7285C144.471 50.7285 144.699 50.9395 144.699 51.3613C144.699 51.6777 144.494 52.0527 144.084 52.4863C142.232 54.3848 139.695 55.334 136.473 55.334C133.578 55.334 131.141 54.4609 129.16 52.7148C127.109 50.8984 126.084 48.6016 126.084 45.8242C126.084 42.9883 127.01 40.6562 128.861 38.8281C130.818 36.8828 133.42 35.9102 136.666 35.9102C139.268 35.9102 141.453 36.7012 143.223 38.2832C145.133 39.9824 146.088 42.2148 146.088 44.9805C146.088 45.3789 146.076 45.8008 146.053 46.2461H134.451V53.7871C135.248 53.9512 136.145 54.0332 137.141 54.0332C139.25 54.0332 141.049 53.3359 142.537 51.9414C142.842 51.6367 143.059 51.3965 143.188 51.2207C143.457 50.8926 143.732 50.7285 144.014 50.7285ZM139.32 37.5273C138.559 37.3047 137.697 37.1934 136.736 37.1934C135.775 37.1934 135.014 37.2578 134.451 37.3867V44.9629H139.32V37.5273ZM149.182 52.6445C149.182 52.4688 149.24 52.3105 149.357 52.1699C149.486 52.0176 149.65 51.9414 149.85 51.9414C150.049 51.9414 150.213 52 150.342 52.1172C150.342 52.1172 150.488 52.252 150.781 52.5215C152 53.5879 153.705 54.1211 155.896 54.1211C157.373 54.1211 158.322 53.8164 158.744 53.207C158.861 53.043 158.92 52.8789 158.92 52.7148C158.92 52.5391 158.885 52.375 158.814 52.2227C158.756 52.0586 158.621 51.8652 158.41 51.6426C158.199 51.4082 157.9 51.1328 157.514 50.8164L155.967 49.5684C153.412 47.5762 151.66 45.959 150.711 44.7168C149.844 43.5801 149.41 42.4199 149.41 41.2363C149.41 39.748 150.096 38.5 151.467 37.4922C152.885 36.4375 154.719 35.9102 156.969 35.9102C158.551 35.9102 159.799 36.0918 160.713 36.4551C161.627 36.8184 162.271 37.1523 162.646 37.457C163.021 37.75 163.209 38.0195 163.209 38.2656C163.209 38.7695 163.01 39.0215 162.611 39.0215C162.424 39.0215 162.248 38.957 162.084 38.8281C161.932 38.6875 161.621 38.459 161.152 38.1426C160.684 37.8145 160.062 37.5566 159.289 37.3691C158.516 37.1816 157.795 37.0879 157.127 37.0879C156.459 37.0879 155.984 37.1934 155.703 37.4043C155.434 37.6152 155.299 37.8262 155.299 38.0371C155.299 38.2363 155.34 38.4297 155.422 38.6172C155.504 38.793 155.656 39.0039 155.879 39.25C156.395 39.8594 157.221 40.5801 158.357 41.4121C159.494 42.2441 160.455 43.0059 161.24 43.6973C162.025 44.3887 162.641 45.0273 163.086 45.6133C163.895 46.668 164.299 47.7344 164.299 48.8125C164.299 49.8906 164.1 50.8164 163.701 51.5898C163.303 52.3516 162.734 53.0078 161.996 53.5586C160.438 54.7422 158.357 55.334 155.756 55.334C153.67 55.334 151.93 54.9355 150.535 54.1387C149.633 53.6348 149.182 53.1367 149.182 52.6445ZM168.553 30.127H176.111V43.5391L183.512 38.1777C184.215 37.6504 184.777 37.1406 185.199 36.6484C185.621 36.1562 185.979 35.9102 186.271 35.9102C186.799 35.9102 187.062 36.127 187.062 36.5605C187.062 36.8887 186.863 37.2168 186.465 37.5449L181.982 41.0078L188.451 55H180.594L176.111 45.0859V55H168.553V30.127Z" fill="white"/>
</svg>
