<svg width="200" height="80" viewBox="0 0 200 80" fill="none" xmlns="http://www.w3.org/2000/svg">
<path d="M25.1719 46.7656L25.2188 48.3281C25.2188 48.599 25.1458 48.8073 25 48.9531C24.8542 49.099 24.6771 49.1719 24.4688 49.1719C24.2708 49.1719 24.1042 49.1042 23.9688 48.9688C23.8333 48.8333 23.7656 48.6875 23.7656 48.5312C23.7656 48.3646 23.776 48.2135 23.7969 48.0781C23.8281 47.9323 23.8542 47.7708 23.875 47.5938C23.9271 47.2917 23.9531 46.5365 23.9531 45.3281V25.8906L40.9375 39.3594V30.0469C40.9375 29.3385 40.9167 28.8333 40.875 28.5312C40.8229 28.0417 40.7969 27.6979 40.7969 27.5C40.7969 26.9792 41.0208 26.7188 41.4688 26.7188C41.6458 26.7188 41.8125 26.7812 41.9688 26.9062C42.1354 27.0312 42.2188 27.2135 42.2188 27.4531V28L42.1562 30.2656V49.8594L25.1719 36.5312V46.7656ZM62.2031 45.2031C62.6094 45.2031 62.8125 45.3906 62.8125 45.7656C62.8125 46.0469 62.6302 46.3802 62.2656 46.7656C60.6198 48.4531 58.3646 49.2969 55.5 49.2969C52.9271 49.2969 50.7604 48.5208 49 46.9688C47.1771 45.3542 46.2656 43.3125 46.2656 40.8438C46.2656 38.3229 47.0885 36.25 48.7344 34.625C50.474 32.8958 52.7865 32.0312 55.6719 32.0312C57.9844 32.0312 59.9271 32.7344 61.5 34.1406C63.1979 35.651 64.0469 37.6354 64.0469 40.0938C64.0469 40.4479 64.0365 40.8229 64.0156 41.2188H53.7031V47.9219C54.4115 48.0677 55.2083 48.1406 56.0938 48.1406C57.9688 48.1406 59.5677 47.5208 60.8906 46.2812C61.1615 46.0104 61.3542 45.7969 61.4688 45.6406C61.7083 45.349 61.9531 45.2031 62.2031 45.2031ZM58.0312 33.4688C57.3542 33.2708 56.5885 33.1719 55.7344 33.1719C54.8802 33.1719 54.2031 33.2292 53.7031 33.3438V40.0781H58.0312V33.4688ZM66.2969 49.2969C66.151 49.2969 66.0156 49.2344 65.8906 49.1094C65.7656 48.9948 65.7031 48.8542 65.7031 48.6875C65.7031 48.3542 65.8906 48.0469 66.2656 47.7656C66.6406 47.4844 66.9115 47.2292 67.0781 47C67.0781 47 68.4583 45.3073 71.2188 41.9219L65.4688 32.3125H72.5781L75.8906 37.8281C77.8177 35.349 78.8542 33.9948 79 33.7656C79.2812 33.3281 79.4688 32.9896 79.5625 32.75C79.7604 32.2708 80.0365 32.0312 80.3906 32.0312C80.5573 32.0312 80.7031 32.0885 80.8281 32.2031C80.9635 32.3073 81.0312 32.4375 81.0312 32.5938C81.0312 32.75 81 32.9062 80.9375 33.0625C80.8854 33.2188 80.7917 33.4167 80.6562 33.6562C80.3854 34.1146 79.9115 34.776 79.2344 35.6406L76.5938 39L82.6094 49H75.4688L71.9062 43.0625L68.0938 47.8594C67.4375 48.6823 66.9688 49.1458 66.6875 49.25C66.5833 49.2812 66.4531 49.2969 66.2969 49.2969ZM91.4375 49.2969C87.3542 49.2969 85.3125 47.4323 85.3125 43.7031L85.2969 33.4531L83.5 33.5312C82.9375 33.5312 82.6562 33.3177 82.6562 32.8906C82.6562 32.4635 82.9583 32.25 83.5625 32.25L85.0625 32.3125H85.2969V29.8906L92 26.8906V32.3125H94.0938L95.5781 32.25C96.1927 32.25 96.5 32.4688 96.5 32.9062C96.5 33.1042 96.4115 33.2604 96.2344 33.375C96.0677 33.4792 95.875 33.5312 95.6562 33.5312L93.7188 33.4531H92V48.1406C93.2188 48.1198 94.2344 47.7708 95.0469 47.0938C95.4323 46.8021 95.7031 46.4271 95.8594 45.9688C96.026 45.5104 96.1719 45.2188 96.2969 45.0938C96.4323 44.9583 96.5885 44.8906 96.7656 44.8906C96.9427 44.8906 97.0938 44.9635 97.2188 45.1094C97.3438 45.2448 97.4062 45.4115 97.4062 45.6094C97.4062 45.7969 97.3542 46.0104 97.25 46.25C97.1458 46.4792 96.9896 46.724 96.7812 46.9844C96.3125 47.5677 95.7708 48.0312 95.1562 48.375C94.0417 48.9896 92.8021 49.2969 91.4375 49.2969ZM100.141 26.8906H106.641C109.672 26.8906 111.896 27.1042 113.312 27.5312C114.927 28.0312 116.172 28.6719 117.047 29.4531C117.932 30.2344 118.625 31.0417 119.125 31.875C120.146 33.5729 120.656 35.5 120.656 37.6562C120.656 41.0521 119.438 43.8021 117 45.9062C115.271 47.4167 113.234 48.349 110.891 48.7031C109.589 48.901 107.766 49 105.422 49H100.141V26.8906ZM108.109 47.7031C108.276 47.7135 108.427 47.7188 108.562 47.7188H108.922C111.745 47.7188 114.156 46.8385 116.156 45.0781C118.271 43.224 119.328 40.7604 119.328 37.6875C119.328 35.75 118.865 34.0052 117.938 32.4531C116.594 30.1927 114.469 28.8229 111.562 28.3438C110.615 28.1875 109.464 28.099 108.109 28.0781V47.7031ZM139.234 45.2031C139.641 45.2031 139.844 45.3906 139.844 45.7656C139.844 46.0469 139.661 46.3802 139.297 46.7656C137.651 48.4531 135.396 49.2969 132.531 49.2969C129.958 49.2969 127.792 48.5208 126.031 46.9688C124.208 45.3542 123.297 43.3125 123.297 40.8438C123.297 38.3229 124.12 36.25 125.766 34.625C127.505 32.8958 129.818 32.0312 132.703 32.0312C135.016 32.0312 136.958 32.7344 138.531 34.1406C140.229 35.651 141.078 37.6354 141.078 40.0938C141.078 40.4479 141.068 40.8229 141.047 41.2188H130.734V47.9219C131.443 48.0677 132.24 48.1406 133.125 48.1406C135 48.1406 136.599 47.5208 137.922 46.2812C138.193 46.0104 138.385 45.7969 138.5 45.6406C138.74 45.349 138.984 45.2031 139.234 45.2031ZM135.062 33.4688C134.385 33.2708 133.62 33.1719 132.766 33.1719C131.911 33.1719 131.234 33.2292 130.734 33.3438V40.0781H135.062V33.4688ZM143.828 46.9062C143.828 46.75 143.88 46.6094 143.984 46.4844C144.099 46.349 144.245 46.2812 144.422 46.2812C144.599 46.2812 144.745 46.3333 144.859 46.4375C144.859 46.4375 144.99 46.5573 145.25 46.7969C146.333 47.7448 147.849 48.2188 149.797 48.2188C151.109 48.2188 151.953 47.9479 152.328 47.4062C152.432 47.2604 152.484 47.1146 152.484 46.9688C152.484 46.8125 152.453 46.6667 152.391 46.5312C152.339 46.3854 152.219 46.2135 152.031 46.0156C151.844 45.8073 151.578 45.5625 151.234 45.2812L149.859 44.1719C147.589 42.401 146.031 40.9635 145.188 39.8594C144.417 38.849 144.031 37.8177 144.031 36.7656C144.031 35.4427 144.641 34.3333 145.859 33.4375C147.12 32.5 148.75 32.0312 150.75 32.0312C152.156 32.0312 153.266 32.1927 154.078 32.5156C154.891 32.8385 155.464 33.1354 155.797 33.4062C156.13 33.6667 156.297 33.9062 156.297 34.125C156.297 34.5729 156.12 34.7969 155.766 34.7969C155.599 34.7969 155.443 34.7396 155.297 34.625C155.161 34.5 154.885 34.2969 154.469 34.0156C154.052 33.724 153.5 33.4948 152.812 33.3281C152.125 33.1615 151.484 33.0781 150.891 33.0781C150.297 33.0781 149.875 33.1719 149.625 33.3594C149.385 33.5469 149.266 33.7344 149.266 33.9219C149.266 34.099 149.302 34.2708 149.375 34.4375C149.448 34.5938 149.583 34.7812 149.781 35C150.24 35.5417 150.974 36.1823 151.984 36.9219C152.995 37.6615 153.849 38.3385 154.547 38.9531C155.245 39.5677 155.792 40.1354 156.188 40.6562C156.906 41.5938 157.266 42.5417 157.266 43.5C157.266 44.4583 157.089 45.2812 156.734 45.9688C156.38 46.6458 155.875 47.2292 155.219 47.7188C153.833 48.7708 151.984 49.2969 149.672 49.2969C147.818 49.2969 146.271 48.9427 145.031 48.2344C144.229 47.7865 143.828 47.3438 143.828 46.9062ZM161.047 26.8906H167.766V38.8125L174.344 34.0469C174.969 33.5781 175.469 33.125 175.844 32.6875C176.219 32.25 176.536 32.0312 176.797 32.0312C177.266 32.0312 177.5 32.224 177.5 32.6094C177.5 32.901 177.323 33.1927 176.969 33.4844L172.984 36.5625L178.734 49H171.75L167.766 40.1875V49H161.047V26.8906Z" fill="#354F52"/>
</svg>
